# xmcd
#
# Track frame offsets:
#	150
#	10872
#	22057
#	31820
#	46042
#	56570
#	67482
#	76815
#	92117
#	101967
#	112060
#	130985
#	141285
#	150477
#	160345
#	171282
#	184502
#	197350
#	209855
#	219770
#	229742
#	245577
#
# Disc length: 3406 seconds
#
# Revision: 0
# Processed by: cddbd v1.4PL0 Copyright (c) Steve Scherf et al.
# Submitted via: EasyCDDAExtractor 4.6.9.1
#
DISCID=370d4c16
DTITLE=Junior Wells - You're Tuff Enough
DYEAR=1998
DGENRE=Rhythmic Soul
TTITLE0=You're Tuff Enough
TTITLE1=It's All Soul
TTITLE2=Gonna Cramp Your Style
TTITLE3=Where Did I Go Wrong
TTITLE4=That'll Hold Me
TTITLE5=Sweet Darling Think It Over
TTITLE6=Up In Heah
TTITLE7=You're The One
TTITLE8=You Ought To Quit That
TTITLE9=Messing With The Kid
TTITLE10=The Hippies Are Trying
TTITLE11=Junior's Groove
TTITLE12=Girl You Lit My Fire
TTITLE13=It's A Man Down There
TTITLE14=I'm Your Gravy Train
TTITLE15=Leave My Woman Alone
TTITLE16=I Can't Stand No Signifying
TTITLE17=I Just Wanna Groove
TTITLE18=You Better Watch Yourself
TTITLE19=What Is That You Got
TTITLE20=Another Mule Kicking In Your Stall
TTITLE21=Party Power
EXTD=
EXTT0=
EXTT1=
EXTT2=
EXTT3=
EXTT4=
EXTT5=
EXTT6=
EXTT7=
EXTT8=
EXTT9=
EXTT10=
EXTT11=
EXTT12=
EXTT13=
EXTT14=
EXTT15=
EXTT16=
EXTT17=
EXTT18=
EXTT19=
EXTT20=
EXTT21=
PLAYORDER=
